<svg width="60" height="56" viewBox="0 0 60 56" fill="none" xmlns="http://www.w3.org/2000/svg">
<rect y="9.72266" width="59" height="46" rx="20" fill="#FFDAC0"/>
<path d="M28.8997 22.6616C28.6952 22.5941 28.4869 22.524 28.2783 22.4518V18.922C28.9682 19.1772 29.4528 19.5348 29.4719 19.549C29.9705 19.9306 30.7065 19.8644 31.1178 19.4003C31.5304 18.9348 31.4606 18.2455 30.9618 17.8603C30.8933 17.8074 29.8045 16.9818 28.2784 16.6337V16.0977C28.2784 15.4936 27.7537 15.0039 27.1066 15.0039C26.4595 15.0039 25.9347 15.4936 25.9347 16.0977V16.5831C25.8106 16.608 25.686 16.6361 25.5605 16.6713C24.2133 17.0501 23.2408 18.1099 22.9588 19.5064C22.685 20.8632 23.1586 22.2163 24.1656 22.9534C24.6251 23.2897 25.1852 23.5982 25.9348 23.9187V28.5446C25.4041 28.4751 25.0062 28.307 24.3722 27.9199C23.8307 27.5891 23.1045 27.7308 22.75 28.2364C22.3957 28.7419 22.5474 29.4197 23.0891 29.7505C24.2023 30.4301 24.9872 30.6688 25.9348 30.745V31.4251C25.9348 32.0292 26.4596 32.5189 27.1067 32.5189C27.7538 32.5189 28.2786 32.0292 28.2786 31.4251V30.6403C30.2276 30.1792 31.477 28.6253 31.7529 27.0933C32.1077 25.1227 30.9611 23.3418 28.8997 22.6616V22.6616ZM25.9347 21.4442C25.8186 21.3748 25.7102 21.3042 25.612 21.2323C25.2957 21.0007 25.1518 20.4576 25.262 19.9116C25.299 19.7285 25.4486 19.1848 25.9347 18.8962V21.4442ZM29.4414 26.7309C29.3343 27.3251 28.9396 27.9497 28.2783 28.3025V24.7821C29.5502 25.2813 29.5185 26.3026 29.4414 26.7309Z" fill="#FF751D"/>
<path d="M55.4896 23.3685L48.0469 18.7812V1.09375C48.0469 0.489672 47.5221 0 46.875 0H18.75C18.1029 0 17.5781 0.489672 17.5781 1.09375V5.25H13.125C12.4779 5.25 11.9531 5.73967 11.9531 6.34375V18.7813L4.51043 23.3686C4.18207 23.571 3.98438 23.9139 3.98438 24.2812V54.9062C3.98438 55.5103 4.50914 56 5.15625 56H24.7266C25.3737 56 25.8984 55.5103 25.8984 54.9062C25.8984 54.3022 25.3737 53.8125 24.7266 53.8125H7.98551L25.0707 37.8663L29.3543 40.5065C29.55 40.6271 29.775 40.6875 30 40.6875C30.225 40.6875 30.45 40.6271 30.6458 40.5065L34.9294 37.8663L52.0146 53.8125H35.2734C34.6263 53.8125 34.1016 54.3022 34.1016 54.9062C34.1016 55.5103 34.6263 56 35.2734 56H54.8438C55.4909 56 56.0156 55.5103 56.0156 54.9062V24.2812C56.0156 23.9139 55.8179 23.571 55.4896 23.3685V23.3685ZM52.7171 24.2812L48.0469 27.1598V21.4027L52.7171 24.2812ZM19.9219 2.1875H45.7031V28.6044L42.4219 30.6269V6.34375C42.4219 5.73967 41.8971 5.25 41.25 5.25H19.9219V2.1875ZM11.9531 21.4027V27.1598L7.28285 24.2812L11.9531 21.4027ZM6.32812 52.2657V26.3143L23.0743 36.6359L6.32812 52.2657ZM30 38.283L14.2969 28.6043V7.4375H40.0781V32.0714L30 38.283ZM53.6719 26.3143V52.2657L36.9257 36.6358L53.6719 26.3143Z" fill="#FF751D"/>
<path d="M30 53.8125C29.6918 53.8125 29.3895 53.9295 29.1715 54.133C28.9535 54.3364 28.8281 54.6186 28.8281 54.9062C28.8281 55.1939 28.9534 55.4761 29.1715 55.6795C29.3896 55.883 29.6918 56 30 56C30.3082 56 30.6105 55.883 30.8284 55.6795C31.0464 55.4761 31.1719 55.1939 31.1719 54.9062C31.1719 54.6186 31.0465 54.3364 30.8284 54.133C30.6105 53.9295 30.3082 53.8125 30 53.8125Z" fill="#FF751D"/>
</svg>
